# xmcd CD database file
#
# Track frame offsets:
#	150
#	1330
#	18858
#	31589
#	55622
#	69128
#	95262
#	124362
#	128334
#	152070
#
# Disc length: 2118 seconds
#
# Revision: 0
# Processed by: cddbd v1.5.2PL0 Copyright (c) Steve Scherf et al.
# Submitted via: CDex 1.91
#
DISCID=6408440a
DTITLE=Jaimie Branch - Fly or die
DYEAR=2017
DGENRE=Jazz
TTITLE0=Jump off
TTITLE1=Theme 001
TTITLE2=Meanwhile
TTITLE3=Theme 002
TTITLE4=Leaves of glass
TTITLE5=The storm
TTITLE6=Waltzer
TTITLE7=Fly or die
TTITLE8=Theme nothing
TTITLE9=Back at the ranch
EXTD=YEAR: 2017
EXTT0=
EXTT1=
EXTT2=
EXTT3=
EXTT4=
EXTT5=
EXTT6=
EXTT7=
EXTT8=
EXTT9=
PLAYORDER=
